<svg xmlns="http://www.w3.org/2000/svg" xmlns:xlink="http://www.w3.org/1999/xlink" width="40" height="40" viewBox="0 0 40 40"><defs><style>.a{fill:none;}.b{clip-path:url(#a);}.c{fill:#fff;stroke:#b7bec5;}.d{fill:#b7bec5;}.e{stroke:none;}</style><clipPath id="a"><rect class="a" width="40" height="40"/></clipPath></defs><g class="b"><g class="c"><circle class="e" cx="20" cy="20" r="20"/><circle class="a" cx="20" cy="20" r="19.5"/></g><path class="d" d="M1.066-16.25H7.059L1.066-22.191Zm3.25,7.566v-2.133H1.066v-3.25H-1.066v3.25h-3.25v2.133h3.25v3.25H1.066v-3.25ZM2.184-23.816l6.5,6.5v13a2.011,2.011,0,0,1-.66,1.5A2.133,2.133,0,0,1,6.5-2.184h-13a2.133,2.133,0,0,1-1.523-.635,2.011,2.011,0,0,1-.66-1.5l.051-17.367A2.049,2.049,0,0,1-8-23.182a2.049,2.049,0,0,1,1.5-.635Z" transform="translate(20 33)"/></g></svg>