<svg xmlns="http://www.w3.org/2000/svg" xmlns:xlink="http://www.w3.org/1999/xlink" width="40" height="40" viewBox="0 0 40 40"><defs><style>.a{fill:none;}.b{clip-path:url(#a);}.c{fill:#005daa;}.d{fill:#fff;}</style><clipPath id="a"><rect class="a" width="40" height="40"/></clipPath></defs><g class="b" transform="translate(0)"><circle class="c" cx="20" cy="20" r="20"/><path class="d" d="M8.684-9.191a1.033,1.033,0,0,1,.762.3,1.033,1.033,0,0,1,.3.762v3.809a1.033,1.033,0,0,1-.3.762,1.033,1.033,0,0,1-.762.3A17.755,17.755,0,0,1-4.342-8.658,17.755,17.755,0,0,1-9.75-21.684a1.033,1.033,0,0,1,.3-.762,1.033,1.033,0,0,1,.762-.3h3.809a1.033,1.033,0,0,1,.762.3,1.033,1.033,0,0,1,.3.762A12.124,12.124,0,0,0-3.2-17.824a1.039,1.039,0,0,1-.254,1.117L-5.84-14.32A16.267,16.267,0,0,0,1.32-7.16L3.707-9.547A1.039,1.039,0,0,1,4.824-9.8,12.124,12.124,0,0,0,8.684-9.191ZM6.5-14.066v-3.25H2.184v-4.367H6.5v-3.25L11.934-19.5Z" transform="translate(20 33)"/></g></svg>