<svg xmlns="http://www.w3.org/2000/svg" xmlns:xlink="http://www.w3.org/1999/xlink" width="40" height="40" viewBox="0 0 40 40"><defs><style>.a{fill:none;}.b{clip-path:url(#a);}.c{fill:#fff;stroke:#b7bec5;}.d{fill:#b7bec5;}.e{stroke:none;}</style><clipPath id="a"><rect class="a" width="40" height="40"/></clipPath></defs><g class="b"><g class="c"><circle class="e" cx="20" cy="20" r="20"/><circle class="a" cx="20" cy="20" r="19.5"/></g><path class="d" d="M4.316-11.934a13.213,13.213,0,0,1,3.1.406,10.075,10.075,0,0,1,3.1,1.32,2.548,2.548,0,0,1,1.422,2.082v2.691h-6.5V-8.125A4.5,4.5,0,0,0,3.3-11.883,7.678,7.678,0,0,1,4.316-11.934Zm-11.73.406a13.213,13.213,0,0,1,3.1-.406,13.213,13.213,0,0,1,3.1.406,9.764,9.764,0,0,1,3.072,1.32,2.551,2.551,0,0,1,1.4,2.082v2.691H-11.934V-8.125a2.548,2.548,0,0,1,1.422-2.082A10.075,10.075,0,0,1-7.414-11.527Zm5.332-3.5a2.96,2.96,0,0,1-2.234.965A3.123,3.123,0,0,1-6.6-15.031a3.123,3.123,0,0,1-.965-2.285A3.123,3.123,0,0,1-6.6-19.6a3.123,3.123,0,0,1,2.285-.965,3.041,3.041,0,0,1,2.26.965,3.165,3.165,0,0,1,.939,2.285A3.123,3.123,0,0,1-2.082-15.031Zm8.684,0a3.123,3.123,0,0,1-2.285.965,3.123,3.123,0,0,1-2.285-.965,3.123,3.123,0,0,1-.965-2.285A3.123,3.123,0,0,1,2.031-19.6a3.123,3.123,0,0,1,2.285-.965A3.123,3.123,0,0,1,6.6-19.6a3.123,3.123,0,0,1,.965,2.285A3.123,3.123,0,0,1,6.6-15.031Z" transform="translate(20 33)"/></g></svg>