<svg xmlns="http://www.w3.org/2000/svg" xmlns:xlink="http://www.w3.org/1999/xlink" width="40" height="40" viewBox="0 0 40 40"><defs><style>.a{fill:none;}.b{clip-path:url(#a);}.c{fill:#ed4e50;}.d{fill:#fff;}</style><clipPath id="a"><rect class="a" width="40" height="40"/></clipPath></defs><g class="b" transform="translate(0)"><circle class="c" cx="20" cy="20" r="20"/><path class="d" d="M0-16.25a15.955,15.955,0,0,0-4.977.762v3.352a.991.991,0,0,1-.609,1.016A10.714,10.714,0,0,0-8.48-9.141a1.033,1.033,0,0,1-.762.3,1.033,1.033,0,0,1-.762-.3L-12.7-11.832a1.033,1.033,0,0,1-.3-.762,1.033,1.033,0,0,1,.3-.762A17.775,17.775,0,0,1,0-18.434a17.775,17.775,0,0,1,12.7,5.078,1.033,1.033,0,0,1,.3.762,1.033,1.033,0,0,1-.3.762L10-9.141a1.033,1.033,0,0,1-.762.3,1.033,1.033,0,0,1-.762-.3,10.714,10.714,0,0,0-2.895-1.98.952.952,0,0,1-.609-.965v-3.352A16.274,16.274,0,0,0,0-16.25Z" transform="translate(20 33)"/></g></svg>