<svg xmlns="http://www.w3.org/2000/svg" width="40" height="40" viewBox="0 0 40 40"><defs><style>.a{fill:#fff;stroke:#b7bec5;}.b{fill:#b7bec5;}.c{stroke:none;}.d{fill:none;}</style></defs><g class="a"><circle class="c" cx="20" cy="20" r="20"/><circle class="d" cx="20" cy="20" r="19.5"/></g><path class="b" d="M6.5-5.434V-6.957q0-1.473-2.234-2.412A11,11,0,0,0,0-10.309a11,11,0,0,0-4.266.939Q-6.5-8.43-6.5-6.957v1.523ZM2.285-17.469A3.123,3.123,0,0,0,0-18.434a3.123,3.123,0,0,0-2.285.965,3.123,3.123,0,0,0-.965,2.285A3.123,3.123,0,0,0-2.285-12.9,3.123,3.123,0,0,0,0-11.934,3.123,3.123,0,0,0,2.285-12.9a3.123,3.123,0,0,0,.965-2.285A3.123,3.123,0,0,0,2.285-17.469ZM.762-22.445A1.033,1.033,0,0,0,0-22.75a1.033,1.033,0,0,0-.762.3,1.033,1.033,0,0,0-.3.762,1.121,1.121,0,0,0,.3.787.994.994,0,0,0,.762.33.994.994,0,0,0,.762-.33,1.121,1.121,0,0,0,.3-.787A1.033,1.033,0,0,0,.762-22.445Zm6.8-.3a2.093,2.093,0,0,1,1.523.66,2.093,2.093,0,0,1,.66,1.523V-5.434A2.093,2.093,0,0,1,9.09-3.91a2.093,2.093,0,0,1-1.523.66H-7.566A2.093,2.093,0,0,1-9.09-3.91a2.093,2.093,0,0,1-.66-1.523V-20.566a2.093,2.093,0,0,1,.66-1.523,2.093,2.093,0,0,1,1.523-.66h4.52a3.391,3.391,0,0,1,1.168-1.574A3.047,3.047,0,0,1,0-24.934a3.047,3.047,0,0,1,1.879.609A3.391,3.391,0,0,1,3.047-22.75Z" transform="translate(20 33)"/></svg>