<svg xmlns="http://www.w3.org/2000/svg" xmlns:xlink="http://www.w3.org/1999/xlink" width="40" height="40" viewBox="0 0 40 40"><defs><style>.a{fill:none;}.b{clip-path:url(#a);}.c{fill:#fff;stroke:#b7bec5;}.d{fill:#b7bec5;}.e{stroke:none;}</style><clipPath id="a"><rect class="a" width="40" height="40"/></clipPath></defs><g class="b"><g class="c"><circle class="e" cx="20" cy="20" r="20"/><circle class="a" cx="20" cy="20" r="19.5"/></g><path class="d" d="M-6.145-12.238a4.7,4.7,0,0,0,3.453,1.422A4.7,4.7,0,0,0,.762-12.238a4.7,4.7,0,0,0,1.422-3.453A4.7,4.7,0,0,0,.762-19.145a4.7,4.7,0,0,0-3.453-1.422,4.7,4.7,0,0,0-3.453,1.422,4.7,4.7,0,0,0-1.422,3.453A4.7,4.7,0,0,0-6.145-12.238Zm9.953,1.422L9.191-5.434,7.566-3.809,2.184-9.191v-.863l-.3-.3a6.743,6.743,0,0,1-4.57,1.676,6.852,6.852,0,0,1-5-2.031A6.725,6.725,0,0,1-9.75-15.691a6.809,6.809,0,0,1,2.057-5,6.809,6.809,0,0,1,5-2.057,6.725,6.725,0,0,1,4.977,2.057,6.852,6.852,0,0,1,2.031,5,6.743,6.743,0,0,1-1.676,4.57l.3.3Z" transform="translate(20 33)"/></g></svg>