<svg xmlns="http://www.w3.org/2000/svg" width="11.934" height="23.867" viewBox="0 0 11.934 23.867"><defs><style>.a{fill:#575757;}</style></defs><path class="a" d="M4.875-19.5H6.5V-7.059a5.819,5.819,0,0,1-1.727,4.24A5.692,5.692,0,0,1,.559-1.066a5.776,5.776,0,0,1-4.24-1.752,5.776,5.776,0,0,1-1.752-4.24V-20.566a4.2,4.2,0,0,1,1.295-3.072,4.2,4.2,0,0,1,3.072-1.295A4.115,4.115,0,0,1,1.98-23.639a4.24,4.24,0,0,1,1.27,3.072V-9.191a2.594,2.594,0,0,1-.787,1.9,2.594,2.594,0,0,1-1.9.787,2.679,2.679,0,0,1-1.93-.787,2.554,2.554,0,0,1-.812-1.9V-19.5H-.559V-9.191a.994.994,0,0,0,.33.762,1.121,1.121,0,0,0,.787.3,1.033,1.033,0,0,0,.762-.3,1.033,1.033,0,0,0,.3-.762V-20.566A2.679,2.679,0,0,0,.838-22.5a2.554,2.554,0,0,0-1.9-.812A2.636,2.636,0,0,0-3-22.5a2.636,2.636,0,0,0-.812,1.93V-7.059A4.2,4.2,0,0,0-2.514-3.986,4.2,4.2,0,0,0,.559-2.691,4.115,4.115,0,0,0,3.605-3.986a4.24,4.24,0,0,0,1.27-3.072Z" transform="translate(5.434 24.934)"/></svg>