<svg xmlns="http://www.w3.org/2000/svg" width="25" height="18.032" viewBox="0 0 25 18.032"><defs><style>.a{fill:#005daa;}</style></defs><g transform="translate(-0.002 -7.999)"><g transform="translate(0.002 7.999)"><path class="a" d="M12.026,17.6l-.6-.6a1.668,1.668,0,0,1-2.453-1.473v0a1.671,1.671,0,0,1-1.663-1.669H7.306A1.668,1.668,0,0,1,5.832,11.4l-1.6-1.6a1.171,1.171,0,0,1-1.236-.27L.143,6.681a.489.489,0,0,1,0-.691L4.828,1.305A.488.488,0,1,1,5.519,2l-4.34,4.34,2.5,2.5a.2.2,0,0,0,.272.005l0,0L8.769,4.032,8.9,3.9a.2.2,0,0,0,0-.278L7.27,1.983a.489.489,0,1,1,.691-.691L9.6,2.927a1.166,1.166,0,0,1,.344.83,1.179,1.179,0,0,1-.042.312l.717.717h3.973l.568-.568a1.175,1.175,0,0,1,.249-1.29l1.68-1.68a.488.488,0,0,1,.691.691L16.1,3.619a.2.2,0,0,0,0,.278L21.039,8.84a.2.2,0,0,0,.278,0l2.5-2.5L19.539,2.055a.488.488,0,0,1,.691-.691l4.628,4.627a.489.489,0,0,1,0,.691L22.008,9.531a1.173,1.173,0,0,1-1.5.132l-1.6,1.465a1.6,1.6,0,0,1-1.379,2.314,1.642,1.642,0,0,1-1.538,1.641v0a1.508,1.508,0,0,1-1.434,1.528,1.482,1.482,0,0,1-2.529.985Zm-1.375-3.742v0a1.668,1.668,0,0,1,1.468,2.451l.6.6a.5.5,0,1,0,.714-.714l-.513-.513a.488.488,0,1,1,.691-.691l.493.493a.533.533,0,1,0,.743-.763l-1.064-1.007A.488.488,0,0,1,14.453,13l.977.925a.663.663,0,0,0,.924-.95l0,0h0L15.336,11.96a.488.488,0,0,1,.691-.691l1.015,1.015a.619.619,0,1,0,.872-.878L14.749,8.282l-1.79-.02L11.323,9.9A1.561,1.561,0,0,1,9.116,7.691l1.928-1.928h-.632a.489.489,0,0,1-.345-.143l-.752-.752L5,9.186l1.527,1.527a1.669,1.669,0,0,1,2.453,1.473h.006A1.671,1.671,0,0,1,10.651,13.856Zm-.464,1.153-.058.058a.692.692,0,0,0,1,.956l.007-.007.007-.006a.692.692,0,0,0-.954-1Zm-1.9-1.153a.692.692,0,0,0,1.15.519c.019-.02.038-.039.058-.058a.692.692,0,1,0-1.208-.461Zm-1.676-1.67a.693.693,0,1,0,.693-.692A.694.694,0,0,0,6.614,12.186ZM15.29,7.444l0,0h0l2.975,2.936,1.531-1.4L15.786,4.969l-.651.651a.489.489,0,0,1-.345.143H12.425L9.807,8.381a.584.584,0,1,0,.826.826l1.781-1.78a.489.489,0,0,1,.351-.143l2.126.023a.516.516,0,0,1,.057,0A.486.486,0,0,1,15.29,7.444ZM3.059,6.611a.487.487,0,1,1,.487.488A.487.487,0,0,1,3.059,6.611Zm17.856-.049a.487.487,0,1,1,.487.488A.487.487,0,0,1,20.916,6.562ZM5.912.526a.487.487,0,1,1,.487.488A.487.487,0,0,1,5.912.526ZM18.1.487a.487.487,0,1,1,.487.488A.487.487,0,0,1,18.1.487Z"/></g></g></svg>