<svg xmlns="http://www.w3.org/2000/svg" width="25" height="19.443" viewBox="0 0 25 19.443"><defs><style>.a{fill:#575757;}</style></defs><g transform="translate(0 -7.813)"><g transform="translate(0 7.813)"><path class="a" d="M1.7,19.443a1.7,1.7,0,0,1-1.7-1.7V10.158A1.688,1.688,0,0,1,.246,9.28l-.008,0L3.871,2.093A1.707,1.707,0,0,1,5.4,1.152h.691V.484A.484.484,0,0,1,6.576,0H18.424a.484.484,0,0,1,.484.484v.668h.69a1.707,1.707,0,0,1,1.531.941l3.633,7.183-.008,0a1.688,1.688,0,0,1,.246.878v7.588a1.7,1.7,0,0,1-1.7,1.7Zm-.62-9.284v7.588a.621.621,0,0,0,.62.62H23.3a.621.621,0,0,0,.62-.62V10.158a.621.621,0,0,0-.62-.62H17.6a.04.04,0,0,0-.037.023l-.7,1.549a1.12,1.12,0,0,1-1.019.658H9.159a1.119,1.119,0,0,1-1.019-.658l-.7-1.549A.041.041,0,0,0,7.4,9.538H1.7A.621.621,0,0,0,1.076,10.158Zm3.772-1.7H7.4a1.12,1.12,0,0,1,1.02.659l.7,1.548a.042.042,0,0,0,.038.024h6.682a.043.043,0,0,0,.038-.024l.7-1.548A1.119,1.119,0,0,1,17.6,8.461h2.557V7.136H4.848Zm14.06-5.377h.644a.484.484,0,0,1,.484.484v2.6h.6a.484.484,0,0,1,.484.484v1.81h2.023L20.168,2.579a.636.636,0,0,0-.57-.351h-.69Zm-14.077-.5L1.856,8.461H3.879V6.651a.485.485,0,0,1,.485-.484h.6v-2.6a.484.484,0,0,1,.484-.484h.644V2.228H5.4A.637.637,0,0,0,4.831,2.579Zm1.1,3.587H19.067V4.053H5.932ZM7.061,3.083H17.939V.969H7.061ZM9.743,16.667a.755.755,0,0,1-.753-.754V14.222a.755.755,0,0,1,.753-.753h5.514a.755.755,0,0,1,.753.753v1.691a.754.754,0,0,1-.753.754Zm.216-.969h5.082v-1.26H9.958Z" transform="translate(0 0)"/></g></g></svg>