<svg xmlns="http://www.w3.org/2000/svg" width="25" height="25" viewBox="0 0 25 25"><defs><style>.a{fill:#575757;}</style></defs><g transform="translate(-0.271 -3.912)"><g transform="translate(0.271 3.912)"><g transform="translate(22.687 23.64)"><path class="a" d="M479.326,492.555a.687.687,0,0,0-.039-.127.678.678,0,0,0-.063-.118.661.661,0,0,0-.188-.188.7.7,0,0,0-.118-.063.64.64,0,0,0-.127-.039.685.685,0,0,0-.613.186.7.7,0,0,0-.085.1.667.667,0,0,0-.063.118.683.683,0,0,0-.039.127.686.686,0,0,0,0,.265.683.683,0,0,0,.039.127.666.666,0,0,0,.063.118.7.7,0,0,0,.085.1.684.684,0,0,0,.481.2.67.67,0,0,0,.133-.013.687.687,0,0,0,.127-.039.668.668,0,0,0,.305-.25.676.676,0,0,0,.063-.118.7.7,0,0,0,.039-.127.656.656,0,0,0,0-.265Z" transform="translate(-477.98 -492.008)"/></g><path class="a" d="M23.434,9.889H21.278l-.109-.433a3.571,3.571,0,0,0,1.853-2.642.488.488,0,0,0,.433-.455l.189-3.054c0-.01,0-.02,0-.03V3.1q0-.053,0-.106A3.045,3.045,0,0,0,22.6.784,3.166,3.166,0,0,0,20.207.015h-.013c-.021,0-2.085.258-3.362.329A1.474,1.474,0,0,0,15.555,1.4a4.272,4.272,0,0,0-.279,1.563v.662q0,.017,0,.034l.019.275a3.771,3.771,0,0,0-1.87-.3h-.013c-.017,0-1.09.135-2.271.252A5.456,5.456,0,0,0,5.851,0,5.252,5.252,0,0,0,1.525,2.1,8.5,8.5,0,0,0,0,7.313v.032a4.436,4.436,0,0,0,1.533,3.39,2.233,2.233,0,0,0-.906,1.8v5.025a.488.488,0,0,0,.488.488h4.7v5.979H1.173a.488.488,0,0,0,0,.977H22a.488.488,0,0,0,0-.977H19.186V17.606h5.326A.488.488,0,0,0,25,17.117V11.455A1.567,1.567,0,0,0,23.434,9.889Zm-3.016-1.16a.488.488,0,0,0-.3.574l.233.926-.9.559-.9-.559L18.8,9.3a.488.488,0,0,0-.3-.574,2.628,2.628,0,0,1-1.008-.707l.026-.427,0-.037c0-.01,0-.02,0-.03V7.31c0-.042,0-.084,0-.127,0-.058-.005-.116-.01-.173,0-.021,0-.042-.006-.063s-.007-.07-.012-.105-.007-.054-.011-.081-.008-.052-.013-.078-.012-.067-.018-.1l-.007-.035a3.6,3.6,0,0,0-.166-.562c.011-.019.021-.039.031-.058l.019-.035c.019-.038.037-.076.054-.114l.006-.014q.023-.052.043-.1l.015-.04c.01-.027.02-.053.029-.08l.015-.046q.013-.038.024-.077l.014-.046q.011-.039.021-.079l.011-.044c.007-.029.014-.058.02-.087l.008-.034c.017-.081.032-.162.045-.242l.005-.036c0-.027.008-.055.012-.082l.005-.042q0-.037.009-.074l0-.042c0-.024,0-.048.007-.072s0-.027,0-.04,0-.05.005-.074,0-.022,0-.032c0-.035,0-.068.005-.1a7.654,7.654,0,0,0,3.659,0l.037-.009c.006.065.013.132.019.2.012.127.024.258.039.391l0,.023q.007.06.015.121l0,.028q.006.045.013.09l.007.045q.008.051.017.1c0,.02.008.041.012.061l.009.047q.025.122.058.24h0a1.939,1.939,0,0,0,.35.716l.02.024c.015.017.029.034.045.05s.049.051.075.074l0,0A2.607,2.607,0,0,1,20.418,8.729Zm-2.666.726-.109.434h-.264l.04-.639A3.6,3.6,0,0,0,17.752,9.456Zm-1.5-6.493h0c0-.773.243-1.621.634-1.642,1.287-.072,3.268-.315,3.421-.334a2.186,2.186,0,0,1,1.643.531,2.078,2.078,0,0,1,.717,1.506q0,.038,0,.075V3.26L22.537,5.4l0-.016c-.006-.022-.012-.044-.018-.067l0-.017a6.694,6.694,0,0,1-.129-.912h0a4.692,4.692,0,0,0-.127-.852h0c0-.014-.009-.028-.015-.041l-.006-.014-.013-.027-.008-.015L22.2,3.414,22.188,3.4l-.016-.022-.01-.013-.021-.023-.008-.009L22.1,3.3l-.01-.008-.023-.018-.014-.009-.022-.014-.015-.009L22,3.234l-.015-.007-.026-.01-.014-.005L21.9,3.2h-.007l-.035-.007-.015,0-.028,0h-.04l-.038,0-.017,0a.491.491,0,0,0-.054.01l-.551.137a6.674,6.674,0,0,1-3.3-.024l-.484-.127a.488.488,0,0,0-.613.472v.39q0,.059,0,.117c0,.015,0,.029,0,.043s0,.048,0,.072,0,.032,0,.048,0,.044,0,.065,0,.031,0,.047,0,.043-.006.065,0,.031-.005.046,0,.042-.007.063,0,.029-.006.044-.006.042-.009.062,0,.027-.007.041-.007.042-.011.062l-.008.038c0,.019-.007.038-.012.057a3.782,3.782,0,0,0-.312-.319h0l-.069-.991ZM13.527,4.609a2.793,2.793,0,0,1,2.008.6l.006.006a2.74,2.74,0,0,1,.739.926h0a2.635,2.635,0,0,1,.265,1.073q0,.048,0,.095v.2l-.19,3.059a.92.92,0,0,1-.1-.177l-.011-.024-.018-.043-.009-.023a5.732,5.732,0,0,1-.242-1.384l0-.019a5.7,5.7,0,0,0-.152-1.024.491.491,0,0,0-.586-.335l-.676.168a8.3,8.3,0,0,1-4.1-.029l-.594-.156A.488.488,0,0,0,9.25,8v.478c0,.01,0,.021,0,.032s0,.025,0,.037a3.144,3.144,0,0,1-.61,2.071L8.452,7.94v-.8q0-.052,0-.1c0-.01,0-.02,0-.029,0-.025,0-.05,0-.075s0-.02,0-.03c0-.025,0-.05,0-.076l0-.027q0-.041.006-.081l0-.02c0-.03.006-.061.009-.091V6.6a4.367,4.367,0,0,1,.085-.5l.008-.034.013-.05L8.6,5.962l.006-.021c.141-.491.37-.86.67-.916h.005l.05-.006C10.915,4.93,13.352,4.631,13.527,4.609ZM13.421,14.9l.306,1.2-1.227.781-1.226-.78.306-1.2a.488.488,0,0,0-.295-.575,3.4,3.4,0,0,1-.438-.209l-.014-.009a3.344,3.344,0,0,1-1.654-2.662A3.72,3.72,0,0,0,10.225,8.63l.024.006a9.278,9.278,0,0,0,4.545.023l.169-.042c.013.118.025.245.037.374l.013.136,0,.041.005.053,0,.045.005.051q0,.043.009.086l0,.044.006.053.006.046.007.054.006.044.01.07,0,.03q.007.046.014.093l0,.03.012.072.005.028q.008.043.016.086l0,.011a2.293,2.293,0,0,0,.686,1.36c0,.006,0,.013,0,.019v.008a3.343,3.343,0,0,1-1.656,2.655l-.013.009a3.4,3.4,0,0,1-.437.208A.488.488,0,0,0,13.421,14.9ZM.977,7.346V7.313C.977,3.464,2.89.977,5.851.977a4.43,4.43,0,0,1,4.283,3.006l-.287.023-.03,0-.056,0-.046,0-.045,0-.087.006-.029,0-.066,0-.03,0-.065,0H9.368l-.087.005A1.564,1.564,0,0,0,8,4.891H6.559A5.635,5.635,0,0,1,3.2,3.758a.488.488,0,0,0-.806.371V6.787a3.527,3.527,0,0,0,.018.359,3.425,3.425,0,0,0,1.5,2.5c.048.032.1.063.148.094s.1.06.155.089l-.091.467H2.86c-.041,0-.081,0-.122,0l-.03,0-.091.008H2.609A3.425,3.425,0,0,1,.977,7.346ZM7.486,9.829,7.5,9.821l.1-.057.037.533H7.577Zm.131-3.944q-.012.05-.022.1l-.008.039q-.013.063-.024.128c0,.022-.008.045-.011.068s-.008.047-.011.07-.007.049-.011.074-.006.046-.009.069-.006.048-.009.073q-.007.065-.013.131c0,.02,0,.039,0,.059s0,.06-.006.091,0,.04,0,.06,0,.065,0,.1c0,.017,0,.034,0,.051,0,.049,0,.1,0,.148v.813q0,.017,0,.034l.044.624-.035.032-.034.029-.075.061-.025.02q-.051.039-.1.075l-.024.016L7.141,8.9,7.1,8.923l-.074.042-.041.022-.079.039-.036.017c-.039.018-.078.034-.117.05a.488.488,0,0,0-.3.548l.176.9-.779.508-.78-.508L5.23,9.73l.017-.089a.488.488,0,0,0-.3-.548A2.463,2.463,0,0,1,3.374,6.787V5.036a6.62,6.62,0,0,0,3.185.831H7.62Zm-3.206,5.4.021.009a.562.562,0,0,1,.057.032l1.1.715a.488.488,0,0,0,.533,0l1.1-.714h0A.574.574,0,0,1,7.27,11.3l.021-.01.033-.014h.383l0,.035a.483.483,0,0,0,.008.059l0,.016c0,.016.008.031.013.046l0,.011a.49.49,0,0,0,.023.052l.007.012q.011.02.023.039l.008.013a.485.485,0,0,0,.035.044l0,0a.5.5,0,0,0,.036.035l.012.01q.019.016.039.029l.007,0a.486.486,0,0,0,.049.028l0,0a1.294,1.294,0,0,1-.557.867c-.3.188-.742.131-1.363-.174a.488.488,0,0,0-.43,0c-.622.3-1.068.362-1.363.174A1.29,1.29,0,0,1,3.7,11.567c0-.144.038-.234.074-.257a.389.389,0,0,1,.043-.024l.027-.012h.53ZM5.906,17v0q-.01.031-.019.062l0,.007H1.6V12.532a1.259,1.259,0,0,1,1.044-1.239l.025,0,.028,0,.035,0h.019a1.621,1.621,0,0,0-.026.288,2.265,2.265,0,0,0,1.021,1.84,2.237,2.237,0,0,0,2.1-.02,2.957,2.957,0,0,0,1.171.281,1.705,1.705,0,0,0,.931-.261h0a2.164,2.164,0,0,0,.569-.535A4.314,4.314,0,0,0,10.1,14.8v.956H7.624l-.086,0-.029,0-.055,0-.035,0-.048.006-.038.006-.043.008-.04.008-.03.007q-.052.012-.1.027l-.015,0-.057.019-.016.005-.059.022-.009,0A1.818,1.818,0,0,0,5.906,17Zm.885,7.028V17.564h0s0-.008,0-.013c0-.026,0-.051,0-.076v0a.833.833,0,0,1,.828-.742h1.3l1.082,7.293Zm3.125-7.293h.539l.5.318-.416,3.879ZM11,24.023l-.216-1.458,1.369,1.4a.49.49,0,0,0,.067.057Zm.426-2.2.45-4.192.363.231a.5.5,0,0,0,.524,0l.363-.231.45,4.192-1.075,1.1ZM14,24.023H12.782a.483.483,0,0,0,.067-.057l1.369-1.4Zm.044-6.975.5-.318h.539l-.623,4.2Zm4.164,6.975H14.989l1.082-7.293h1.3c.026,0,.051,0,.076,0l.026,0,.048.007.03.006.043.011.029.008.062.023.032.014.034.017.031.017.035.021.026.017c.019.013.038.027.056.042l0,0c.018.015.035.031.052.047l.013.013c.014.014.027.028.039.043l.011.014q.02.025.039.052l.006.008a.834.834,0,0,1,.073.134l.007.018a.828.828,0,0,1,.061.312Zm.716-7.394h0L18.9,16.6l-.033-.05-.031-.043-.03-.04-.032-.041-.04-.047-.036-.04-.057-.059-.026-.024-.056-.051-.021-.018a1.8,1.8,0,0,0-.921-.411l-.022,0-.087-.009-.028,0c-.036,0-.073,0-.11,0H14.9V14.8a4.305,4.305,0,0,0,1.874-3.037H16.8l.048,0a.49.49,0,0,0,.439-.456l.027-.439h.422l.005,0h0l.359.224-.421,3.927a.488.488,0,0,0,.136.393l1.187,1.216ZM18.679,14.9l.346-3.228.177.111a.488.488,0,0,0,.517,0l.177-.111.346,3.228-.782.8Zm5.345,1.733H19.915L21.1,15.413a.488.488,0,0,0,.136-.393l-.421-3.927.359-.224h0l.005,0h2.253a.59.59,0,0,1,.589.589Z" transform="translate(0 0)"/></g></g></svg>