<svg xmlns="http://www.w3.org/2000/svg" width="25" height="23.033" viewBox="0 0 25 23.033"><defs><style>.a{fill:#575757;}</style></defs><g transform="translate(0 -6)"><path class="a" d="M66.24-977.819a1.466,1.466,0,0,1-1.464-1.464v-4.3a1.466,1.466,0,0,1,1.464-1.464h4.3A1.466,1.466,0,0,1,72-983.579v4.3a1.465,1.465,0,0,1-1.464,1.464Zm-.488-5.759v4.3a.489.489,0,0,0,.488.488h4.3a.489.489,0,0,0,.488-.488v-4.3a.489.489,0,0,0-.488-.488h-4.3A.489.489,0,0,0,65.752-983.579Zm-8.4,5.759a1.466,1.466,0,0,1-1.464-1.464v-4.3a1.466,1.466,0,0,1,1.464-1.464h4.3a1.465,1.465,0,0,1,1.464,1.464v4.3a1.465,1.465,0,0,1-1.464,1.464Zm-.488-5.759v4.3a.489.489,0,0,0,.488.488h4.3a.489.489,0,0,0,.488-.488v-4.3a.489.489,0,0,0-.488-.488h-4.3A.489.489,0,0,0,56.864-983.579Zm-8.4,5.759A1.466,1.466,0,0,1,47-979.284v-4.3a1.466,1.466,0,0,1,1.464-1.464h4.3a1.465,1.465,0,0,1,1.464,1.464v4.3a1.465,1.465,0,0,1-1.464,1.464Zm-.488-5.759v4.3a.489.489,0,0,0,.488.488h4.3a.489.489,0,0,0,.488-.488v-4.3a.489.489,0,0,0-.488-.488h-4.3A.489.489,0,0,0,47.976-983.579Zm2.386-2.323a.488.488,0,0,1-.238-.44v-1.523a.977.977,0,0,1,.976-.976h2.147a.488.488,0,0,1,.469.488.488.488,0,0,1-.469.488H51.1v1.523a.488.488,0,0,1-.238.44.493.493,0,0,1-.25.069A.49.49,0,0,1,50.361-985.9Zm17.539-.44v-1.523H59.988v1.333a.488.488,0,0,1-.238.44.489.489,0,0,1-.5,0,.487.487,0,0,1-.239-.44v-1.333H56.859a.488.488,0,0,1-.44-.238.49.49,0,0,1,0-.5.488.488,0,0,1,.44-.238h2.153v-.592a.487.487,0,0,1,.239-.44.489.489,0,0,1,.5,0,.488.488,0,0,1,.238.44v.592H67.9a.977.977,0,0,1,.976.973v1.526a.488.488,0,0,1-.488.468A.489.489,0,0,1,67.9-986.341Zm-13.325-1.823a.487.487,0,0,1,.179-.592.488.488,0,0,1,.616.06.492.492,0,0,1,.143.345.488.488,0,0,1-.392.479.513.513,0,0,1-.1.009A.488.488,0,0,1,54.576-988.164Zm-.1-2.343a1.466,1.466,0,0,1-1.465-1.464v-7.417a1.467,1.467,0,0,1,1.465-1.464h10.05a1.466,1.466,0,0,1,1.464,1.46v7.421a1.465,1.465,0,0,1-1.464,1.464Zm-.488-8.885v7.422a.488.488,0,0,0,.488.488h10.05a.488.488,0,0,0,.488-.488v-7.422a.488.488,0,0,0-.488-.488H54.471A.488.488,0,0,0,53.982-999.392Zm8.933,5.853a.489.489,0,0,1,.179-.593.488.488,0,0,1,.616.06.489.489,0,0,1,.143.345.488.488,0,0,1-.392.479.467.467,0,0,1-.1.01A.487.487,0,0,1,62.916-993.539Zm-7.841.062a.49.49,0,0,1,0-.5.488.488,0,0,1,.44-.238H61.3a.488.488,0,0,1,.469.488.488.488,0,0,1-.469.487h-5.8A.489.489,0,0,1,55.075-993.477Zm.44-2.107h-.02a.487.487,0,0,1-.419-.239.489.489,0,0,1,0-.5.486.486,0,0,1,.44-.238h7.85a.488.488,0,0,1,.468.488.489.489,0,0,1-.468.488Zm0-2.339h-.02a.488.488,0,0,1-.419-.238.49.49,0,0,1,0-.5.488.488,0,0,1,.44-.238h7.85a.488.488,0,0,1,.468.488.488.488,0,0,1-.468.488Z" transform="translate(-47 1006.852)"/></g></svg>