<svg xmlns="http://www.w3.org/2000/svg" width="15.133" height="20.566" viewBox="0 0 15.133 20.566"><defs><style>.a{fill:#b7bec5;}</style></defs><path class="a" d="M5.738-14.066H7.566a6.841,6.841,0,0,1-1.9,4.8A7.67,7.67,0,0,1,1.066-6.8V-3.25H-1.066V-6.8a7.67,7.67,0,0,1-4.6-2.463,6.841,6.841,0,0,1-1.9-4.8h1.828a5.089,5.089,0,0,0,1.7,3.936A5.8,5.8,0,0,0,0-8.582a5.8,5.8,0,0,0,4.037-1.549A5.089,5.089,0,0,0,5.738-14.066Zm-7.059-6.6v6.7a1.218,1.218,0,0,0,.381.889A1.276,1.276,0,0,0,0-12.7a1.261,1.261,0,0,0,.889-.355,1.194,1.194,0,0,0,.381-.914l.051-6.7a1.237,1.237,0,0,0-.406-.939A1.3,1.3,0,0,0,0-21.988a1.3,1.3,0,0,0-.914.381A1.237,1.237,0,0,0-1.32-20.668Zm3.605,8.887A3.123,3.123,0,0,1,0-10.816a3.123,3.123,0,0,1-2.285-.965,3.123,3.123,0,0,1-.965-2.285v-6.5a3.123,3.123,0,0,1,.965-2.285A3.123,3.123,0,0,1,0-23.816a3.123,3.123,0,0,1,2.285.965,3.123,3.123,0,0,1,.965,2.285v6.5A3.123,3.123,0,0,1,2.285-11.781Z" transform="translate(7.566 23.816)"/></svg>